<?xml version="1.0" encoding="UTF-8"?>
<svg id="Layer_1" data-name="Layer 1" xmlns="http://www.w3.org/2000/svg" viewBox="0 0 1920 1080">
  <path d="M1920,1080H0V0h1920v1080Z" fill="#eadf9d" stroke-width="0"/>
  <path d="M145.52,556.47c32.33,3.43,64.66,6.94,96.99,10.32,31.58,3.3,63.18,6.44,94.77,9.73,31.83,3.32,63.65,6.77,95.48,10.13,31.31,3.31,62.63,6.56,93.95,9.87,32.34,3.42,64.67,6.91,97.01,10.31,26.24,2.76,52.48,5.42,78.72,8.17,32.6,3.41,65.18,6.88,97.78,10.29,36.42,3.81,72.83,7.59,109.25,11.36,10.43,1.08,20.88,2.07,31.31,3.1-.9-.54-1.8-1.08-2.7-1.63-22.73-4.91-45.46-9.88-68.2-14.73-92.58-19.73-185.16-39.46-277.75-59.12-90.84-19.29-181.7-38.47-272.54-57.77-66.31-14.09-132.59-28.3-198.89-42.44-40.23-8.58-80.47-17.13-120.7-25.68v102.86c16.68,1.71,33.36,3.43,50.03,5.17,31.83,3.32,63.66,6.69,95.49,10.07h0ZM460.46,356.01c153.57,88.66,307.12,177.35,460.71,265.96,2.77,1.6,5.18,4.24,8.83,3.94-.02-.04-.04-.07-.06-.11.08-.13.16-.24.25-.34.83-3.88-3.19-4.08-5.03-5.43-61.3-44.76-122.71-89.37-184.12-133.98C517.98,324.02,294.93,161.97,71.83,0H0v90c11.93,6.9,23.76,13.98,35.7,20.86,141.62,81.66,283.19,163.41,424.76,245.15h0ZM820.84,685.1c38.92-12.64,77.87-25.18,116.8-37.77.2-.73.41-1.45.61-2.18-58.05,12.31-116.11,24.61-174.16,36.94-92.84,19.73-185.67,39.52-278.51,59.23-73.57,15.62-147.15,31.17-220.73,46.77C176.56,806.81,88.28,825.56,0,844.28v107.47c127.4-41.37,254.79-82.75,382.18-124.14,146.22-47.51,292.44-95.03,438.66-142.52h.01ZM933.9,612.36c1.23,1.68,1.51,5.24,4.96,4.42.11-.09.23-.18.37-.27.04.02.07.05.11.07.47-2.84-1.57-4.7-2.79-6.83-86.62-150.08-173.29-300.14-259.92-450.22C645.94,106.36,615.26,53.18,584.59,0h-95.68c103.24,142.12,206.5,284.24,309.76,426.36,45.06,62.02,90.09,124.06,135.25,186.01h-.02ZM971.13,677.19c.21.98.49,1.92.87,2.81,2,3,1,8,2,12h3c1,2-1,4,0,6h3c1,7-2,15,1,21,1.53,2.3,1.31,4.6,1.57,7.36.34,1.05.68,2.1,1.02,3.15,1.04.83,2.42,1.66,2.42,2.49.23,1.81.24,3.67.18,5.54,1.29,3.99,2.57,7.98,3.86,11.97,35.76,110.17,71.54,220.33,107.31,330.49h52.85c-51.18-114.9-102.4-229.79-153.56-344.71-8.6-19.32-17.05-38.72-25.51-58.1h0ZM928.92,664.78c1.63-1.46,3.84-2.47,4.24-4.96h-.1c0-.09.01-.17.02-.26-2.65-2.31-3.93.79-5.35,1.8-15.03,10.72-29.94,21.62-44.87,32.47-139.01,101.02-278,202.06-417.02,303.07-38.13,27.71-76.27,55.41-114.41,83.12h116.46c108.51-97.71,217.02-195.42,325.53-293.14,45.18-40.68,90.34-81.39,135.5-122.09h0ZM943.37,667.31c1.03-2.32,3.15-4.51,2.14-7.45-.06-.02-.11-.04-.18-.07.01-.04.02-.09.03-.13-2.29.67-2.57,2.96-3.53,4.62-47.44,82.01-94.85,164.04-142.23,246.08-32.65,56.54-65.3,113.09-97.95,169.64h57.9c22.56-50.66,45.13-101.31,67.69-151.97,38.71-86.91,77.46-173.79,116.12-260.72h0ZM953.11,655.11c-2.75,27.78-5.41,55.56-8.27,83.33-3.31,32.09-6.83,64.17-10.21,96.25-3.31,31.32-6.53,62.66-9.84,93.98-3.36,31.83-6.85,63.66-10.17,95.49-1.94,18.61-3.83,37.22-5.73,55.84h45.99c-.02-141.07-.04-282.15-.07-423.22-.56-.56-1.13-1.11-1.69-1.67h0ZM885.23,313.22c19.33,91.03,38.71,182.05,57.85,273.12,2.64,12.55,6.81,24.86,6.96,37.87,2.43.03,1.14,2.06,1.6,3.15.51.08,1.02.08,1.54,0-2.33-23.19-4.6-46.38-7-69.55-3.3-31.84-6.71-63.67-10.06-95.5-3.27-31.07-6.53-62.14-9.79-93.21-3.4-32.35-6.79-64.69-10.22-97.04-3.92-36.92-7.91-73.84-11.81-110.76-3.28-31.07-6.46-62.16-9.72-93.24-2.38-22.69-4.82-45.38-7.21-68.07h-68.69c8.2,38.65,16.4,77.3,24.61,115.95,13.97,65.76,27.99,131.51,41.95,197.27h-.01ZM975.17,613.72c-1.15,1.6-4.59,2.92-2.12,5.93h.15s-.01.08-.02.11c2.27-.33,3.23-2.26,4.56-3.74,38.81-43.07,77.63-86.13,116.42-129.21,83.08-92.25,166.13-184.52,249.21-276.77,63.06-70.02,126.15-140.01,189.19-210.04h-111.65c-124.52,171.37-249.05,342.74-373.57,514.11-24.11,33.18-48.21,66.35-72.19,99.62h.02,0ZM1002.96,613.78c-10.06,5.81-20.73,10.68-29.79,18.15h.04c.03.06.06.12.08.18,2.6.89,4.62-.86,6.72-1.8,223.98-99.66,447.94-199.34,671.9-299.05,89.37-39.79,178.72-79.63,268.09-119.42v-127.63c-111.1,64.14-222.19,128.31-333.29,192.46-194.59,112.36-389.21,224.68-583.76,337.12h.01ZM1816.46,550.84c-31.83,3.36-63.64,6.84-95.47,10.21-36.92,3.91-73.84,7.75-110.77,11.61-32.09,3.36-64.17,6.71-96.26,10.05-31.33,3.26-62.66,6.45-93.98,9.75-32.08,3.37-64.15,6.85-96.22,10.25-32.08,3.4-64.17,6.76-96.25,10.15-31.06,3.28-62.13,6.56-93.19,9.84-32.08,3.39-64.15,6.85-96.24,10.15-23.18,2.38-46.37,4.56-69.56,6.84.56.57,1.12,1.14,1.68,1.72,7.19.05,14.38.13,21.57.13,309.41,0,618.82,0,928.23-.03v-101.41c-3.19.32-6.38.64-9.56.97-31.33,3.24-62.65,6.47-93.97,9.78h-.01ZM988.15,671.43c-4.01-3.61-7.89-7.35-12.07-10.75-.85-.69-5.3-3.75-2.83,1.91,1.17,1.11,3.85,1.69,1.45,4.07l.06.03c3.83-1.72,4.66,2.06,6.2,3.76,86.21,95.62,172.32,191.32,258.45,287.01,36.77,40.85,73.54,81.69,110.31,122.53h92.14c-54.21-48.82-108.43-97.64-162.64-146.46-97.02-87.37-194.04-174.73-291.06-262.1h0ZM1039.43,243.7c-17.71,83.3-35.4,166.61-53.1,249.92-9.2,43.32-18.39,86.64-27.59,129.95.14.37.28.74.44,1.1.52-.15,1.04-.29,1.57-.44.05-.51,0-1.05.16-1.53,20.01-61.48,40.06-122.95,60.04-184.44,44.71-137.59,89.41-275.18,134.07-412.78,2.76-8.49,5.49-16.99,8.24-25.49h-71.98c-.04.19-.08.39-.12.58-17.19,81.05-34.49,162.08-51.73,243.12h0ZM1095.12,687.07c-40.13-13.04-80.22-26.2-120.34-39.29-.96-.31-2.01-.35-3.02-.51-1.21.33-2.67-1.45-3.76-.64v3.04c.55.32,1.26.53,1.78.85,2.32-3.67,4.59-.25,6.3.5,33.73,14.81,67.38,29.81,101.04,44.8,189.33,84.3,378.65,168.62,567.97,252.92,91.63,40.8,183.27,81.59,274.91,122.39v-116.14c-105.15-34.17-210.29-68.35-315.45-102.5-169.81-55.15-339.63-110.25-509.43-165.41h0Z" fill="#55aabe" stroke-width="0"/>
  <path d="M732.7,441.41c65.93,59.35,131.88,118.67,197.71,178.13,1.72,1.55,5.59,2.3,4.41,6.06,1.92-1.37,2.46.11,2.95,1.71.49.02.98.05,1.47.07l1.56-1.56c-.23-.38-.34-.8-.34-1.25-.77-.7-1.54-1.41-2.31-2.11-28.02-30.99-56.08-61.96-84.05-92.99-59.22-65.7-118.41-131.43-177.59-197.17-83.03-92.21-166.05-184.43-249.07-276.65-16.7-18.55-33.39-37.1-50.08-55.65h-134.84c34.59,31.17,69.18,62.35,103.79,93.51,128.79,115.98,257.59,231.94,386.4,347.9h0ZM549.8,509.89c126.18,41.03,252.37,82.05,378.58,122.99,1.9.62,3.94,2.29,6.17.77v-.17h.1c-1.72-2.85-4.98-3.19-7.62-4.36-142.57-63.52-285.19-126.94-427.78-190.43C332.83,364.57,166.43,290.42,0,216.33v114.92c.39.13.79.27,1.18.39,182.92,59.28,365.76,118.79,548.62,178.25ZM148.6,726.11c41.51-4.36,83.05-8.42,124.56-12.8,41.51-4.37,82.98-9.08,124.48-13.44s83.04-8.38,124.55-12.75c46.35-4.87,92.66-10.07,139.01-14.94,46.35-4.87,92.73-9.42,139.09-14.29,46.84-4.92,93.66-10.07,140.49-15.12,0-.57,0-1.15-.01-1.72-3.34.06-6.67.17-10.01.17H0v100.91c8.03-.94,16.06-1.98,24.1-2.76,41.54-4.04,82.99-8.91,124.5-13.27h.01ZM858.98,425.99c28.72,64.49,57.47,128.96,86.06,193.51.77,1.73,4.23,4.04.37,6.33,0,.29,0,.57.01.86,1.48.77,2.98,1.4,4.67.69-.05-1.05-.1-2.11-.14-3.16h.03c-8.94-22.43-15.49-45.67-22.96-68.58-47.72-146.31-95.19-292.7-142.77-439.05-12.63-38.86-25.28-77.72-37.94-116.58h-77.01c3.19,7.17,6.39,14.34,9.58,21.51,60.03,134.82,120.05,269.65,180.09,404.47h.01ZM916,824.86c11.12-52.29,22.2-104.58,33.24-156.89.56-2.67.59-5.46.86-8.19-.04.01-.07.03-.11.04v-.18c-.53-.07-1.05-.15-1.58-.22-.36,1.72-.57,3.49-1.1,5.16-33.85,104.33-67.72,208.64-101.61,312.96-11.1,34.16-22.2,68.31-33.3,102.46h49.31c.42-1.97.84-3.94,1.26-5.91,17.66-83.08,35.38-166.15,53.04-249.22h-.01ZM940.54,661.16c1.47-2.03,3.72-3.69,3.45-6.63-1.58,1.5-3.15,3.01-4.73,4.51l-.11.06c-35.89,39.8-71.79,79.59-107.65,119.42-83.06,92.24-166.1,184.5-249.16,276.75-7.42,8.24-14.84,16.48-22.27,24.73h76.21c50.48-69.47,100.96-138.94,151.43-208.41,50.95-70.13,101.89-140.28,152.82-210.43h.01ZM906.88,669.16c9.38-5.42,19.36-9.94,27.7-17.06h-.04s.01-.09.02-.14c-2.98-1.36-5.2.92-7.49,1.94-202.46,90.11-404.88,180.32-607.31,270.5-106.58,47.48-213.17,94.93-319.76,142.37v13.24h195.34c63.71-36.79,127.43-73.58,191.14-110.37,173.47-100.15,346.96-200.26,520.4-300.47h0ZM975.41,737.9c-5.51-26-10.84-52.05-16.26-78.07-.93-.14-1.86-.27-2.8-.41,2,17.52,4.08,35.04,5.97,52.58,3.45,32.07,6.79,64.15,10.17,96.23,3.3,31.32,6.59,62.64,9.9,93.96,3.44,32.59,6.93,65.17,10.35,97.76,2.8,26.68,5.53,53.37,8.31,80.05h47.01c-2.87-13.48-5.75-26.97-8.61-40.45-21.38-100.54-42.72-201.09-64.04-301.65h0ZM1015.29,621.84c-14.07,4.56-27.88,9.99-42.39,13.14.08.53.15,1.06.23,1.59h.11c-.02.06-.04.1-.06.16,17.36-1.64,34.12-6.41,51.09-9.98,88.13-18.56,176.18-37.51,264.28-56.24,90.6-19.27,181.22-38.44,271.83-57.66,98.62-20.92,197.24-41.83,295.85-62.81,21.27-4.53,42.51-9.17,63.76-13.81v-108.24c-153.63,49.88-307.25,99.8-460.87,149.71-147.94,48.07-295.86,96.18-443.84,144.15h.01ZM967.04,614.35c-.93,2.1-2.98,4.11-1.67,6.8.05,0,.09-.02.14-.02,0,.03.01.06.02.09,2.79-1.25,3.39-4.18,4.72-6.47,13.92-23.9,27.76-47.84,41.58-71.79C1116.3,361.98,1220.79,181,1325.23,0h-84.76c-43.64,98.01-87.31,196.01-130.95,294.02-47.54,106.76-95.03,213.54-142.48,320.33h0ZM976.52,621.94c-.76.68-1.61,1.26-2.42,1.89-1.81,1.74-3.63,3.49-5.44,5.24.46.45.93.91,1.39,1.36,131.57-95.58,263.15-191.15,394.71-286.74C1522.46,229.12,1680.14,114.52,1837.87,0h-170.55c-111.7,100.6-223.42,201.17-335.14,301.76-118.55,106.73-237.1,213.46-355.66,320.19h0ZM974.76,666.7l-.06-.03c-1.98.47-2.24-1.15-2.85-2.35-.31-.2-.58-.44-.82-.71-.11,1.73-.24,3.48-.32,5.2,79.12,137.08,158.28,274.14,237.43,411.2h65.33c-98.03-134.92-196.06-269.84-294.03-404.81-1.87-2.58-4.88-4.71-4.68-8.49h0ZM955,578c4.31,12.21-.15,26.99,2.18,39.91,3.37-31.96,6.73-63.92,10.1-95.89,2.66-25.19,5.34-50.38,8.01-75.58,3.4-32.06,6.83-64.12,10.2-96.18,3.29-31.3,6.5-62.61,9.79-93.91,3.39-32.32,6.86-64.63,10.25-96.95,3.28-31.31,6.46-62.63,9.76-93.93,2.3-21.82,4.59-43.65,6.92-65.46h-67.57v577.14c.12.29.22.57.35.86h.01ZM980.4,656.31c-2.22-1.28-4.11-3.74-7.21-2.8,0,.05.01.09.02.14-.03-.01-.06-.02-.09-.04,9.23,9.25,20.47,15.9,30.94,23.51,184.77,134.34,369.58,268.61,554.4,402.88h156c-132.66-76.54-265.31-153.1-397.96-229.66-112.03-64.67-224.05-129.38-336.09-194.03h-.01ZM1802.65,730.63c-31.84-3.37-63.68-6.75-95.52-10.1-31.58-3.33-63.17-6.61-94.75-9.94-32.09-3.39-64.18-6.86-96.27-10.22-31.59-3.31-63.19-6.53-94.78-9.82-31.59-3.29-63.18-6.61-94.77-9.94s-63.17-6.71-94.75-10.04c-31.58-3.32-63.17-6.6-94.76-9.9-32.86-3.43-65.73-6.81-98.58-10.33-21.88-2.35-43.74-4.9-65.6-7.36.13.92.26,1.83.4,2.75,12.51,2.59,25.03,5.12,37.53,7.77,98.6,20.92,197.2,41.88,295.8,62.8,90.61,19.22,181.23,38.36,271.83,57.61,78.34,16.65,156.64,33.46,234.97,50.11,35.52,7.55,71.08,14.97,106.62,22.41v-103.27c-11.87-1.18-23.7-2.86-35.57-3.95-27.29-2.52-54.52-5.69-81.78-8.58h-.02Z" fill="#55aabe" stroke-width="0"/>
  <g id="no_3" data-name="no 3">
    <path d="M880.15,886.68v7.79l74.61,24.87,175.53-98.8,4.78-.68,93.26-87.05,223.83-55.96,31.09,18.65,18.65-6.22,68.39-49.62-1.88-59.34s-47.86-27.83-72.73-15.39c-60.04,30.02-267.35,24.87-267.35,24.87l-111.92-43.52-105.7,24.87-130.57,62.18-6.22,105.7,6.22,147.65Z" fill="#000" stroke-width="0"/>
    <g>
      <path d="M395.18,564.94s111.92-87.05,416.57-87.05c0,0,105.7-87.05,273.57-111.92l118.13-12.44h105.7s118.13,18.65,205.18,130.57c0,0,24.87,31.09,49.74,31.09l6.22,93.26s-18.65-74.61-49.74-6.22c-31.09,68.39-31.09,105.7-31.09,105.7,0,0-13.22,0-38.82,4.26-24.05,4-59.01,11.77-104.18,26.83-93.26,31.09-186.53,55.96-198.96,80.83h-12.43s43.52-136.79-12.44-198.96c-55.96-62.18-118.13-18.65-118.13-18.65,0,0-80.83,49.74-99.48,161.66-18.65,111.92-12.44,124.35-12.44,124.35,0,0-37.3-6.22-62.18,0-24.87,6.22-161.66,6.22-223.83-18.65-62.18-24.87-111.92-6.22-149.22-24.87-43.52-18.65-74.61-37.31-87.05-68.39,0,0,0-12.44,18.65-12.44v-31.09s-18.65-12.43-12.43-74.61c0,0,0-12.43,12.43-24.87,0,0,6.22-31.09,6.22-55.96s0,0,0,0c0,0-12.44,0,0-12.43Z" fill="#f38123" stroke-width="0"/>
      <path d="M1520.55,602.24c-27.9,69.75-31.09,105.7-31.09,105.7,0,0-13.22,0-38.82,4.26,0,0,1.52,33.04,20.17,39.26,18.65,6.22,49.74,6.22,62.18,0,12.43-6.22,43.52-49.74,37.31-105.7-6.22-55.96-37.31-74.61-49.74-43.52Z" fill="#000" stroke-width="0"/>
      <path d="M388.97,732.81v31.09s-31.09,49.74,80.83,62.18c111.92,12.43,155.44,12.43,155.44,12.43l-31.09-49.74h68.39s43.52,49.74,99.48,43.52c55.96-6.22,43.52-62.18,43.52-62.18h-24.87s0-43.52,24.87-124.35c0,0-62.18-12.44-105.7,49.74-43.52,62.18-62.18,68.39-62.18,68.39,0,0-186.53,24.87-248.7-31.09Z" fill="#111315" stroke-width="0"/>
      <path d="M795.15,770.11h-.99c-7.45,0-13.33-6.38-12.62-13.8,1.69-17.67,6.67-52.04,21.27-101.52,1.58-5.36,6.55-9.03,12.14-9.03h0c7.99,0,13.99,7.31,12.42,15.15l-19.8,99.01c-1.18,5.92-6.38,10.18-12.42,10.18Z" fill="#fff" stroke-width="0"/>
      <path d="M395.18,577.37c0,24.87-6.22,55.96-6.22,55.96,0,0-18.65,24.87,0,55.96,18.65,31.09,111.92,24.87,111.92,24.87,0,0,55.96,0,74.61-31.09l62.18-80.83s12.44-18.65-18.65-24.87l-217.61-6.22s-6.22,0-6.22,6.22Z" fill="#fff" stroke-width="0"/>
      <path d="M1085.33,365.98c-167.87,24.87-254.92,99.48-254.92,99.48,0,0,273.57,12.43,335.75-6.22,0,0,43.52-74.61,74.61-93.26h-155.44Z" fill="#fff" stroke-width="0"/>
      <path d="M1209.68,484.11s-31.09,0-18.65-18.65c12.44-18.65,62.18-99.48,99.48-99.48s93.26,6.22,205.18,105.7c0,0,18.65,12.43-18.65,12.43h-267.35Z" fill="#fff" stroke-width="0"/>
      <path d="M1240.77,471.67s-6.22-37.31,37.31-37.31,68.39,0,68.39,6.22,6.22,31.09-18.65,37.31c0,0-80.83,6.22-87.05-6.22Z" fill="#f38123" stroke-width="0"/>
      <path d="M637.67,589.81s18.65,43.52,80.83,31.09c62.18-12.44,130.57-6.22,155.44-43.52,0,0,6.22-12.43,49.74-24.87,43.52-12.43,37.31-37.31,37.31-37.31,0,0-55.96-6.22-99.48,12.43-43.52,18.65-68.39,24.87-68.39,37.31-43.52,18.65-87.05,18.65-130.57,18.65,0,0-24.87,0-24.87,6.22Z" fill="#fff" stroke-width="0"/>
      <path d="M718.49,620.89c-63.41,0-80.83-31.09-80.83-31.09,0-6.22,24.87-6.22,24.87-6.22,43.52,0,87.05,0,130.57-18.65,0,0,87.05-12.44,31.09,37.31,0,0-12.44,18.65-105.7,18.65Z" fill="#fff" stroke-width="0"/>
      <path d="M395.18,577.37c0,24.87-6.22,55.96-6.22,55.96,0,0-18.65,68.39,87.05,62.18,0,0,74.61,18.65,118.13-43.52,43.52-62.18,49.74-62.18,24.87-68.39,0,0-198.96,0-217.61-6.22h-6.22Z" fill="#212224" stroke-width="0"/>
      <path d="M880.15,894.46s43.52,49.74,130.57,49.74,111.92-93.26,118.13-118.13c6.22-24.87,37.31-124.35-12.44-180.31-49.74-55.96-105.7-49.74-130.57-24.87-24.87,24.87-80.83,93.26-87.05,230.05v43.52h-18.65Z" fill="#000" stroke-width="0"/>
      <path d="M1128.85,826.07c6.22-24.87,37.31-124.35-12.44-180.31,0,0-62.18-80.83-130.57-6.22-68.39,74.61-55.96,192.74-55.96,192.74,0,0,40.45,148.58,126.07,101.93,4.5-2.45,57.51-40.75,71.42-102.43l1.47-5.72Z" fill="#000" stroke-width="0"/>
      <path d="M960.98,726.59s55.96-143,143-62.18c0,0,49.74,74.61,12.43,167.87-37.31,93.26-105.7,74.61-105.7,74.61,0,0-74.61-6.22-49.74-180.31Z" fill="#fff" stroke-width="0"/>
      <path d="M1526.77,620.89s-37.3,80.83,0,118.13c0,0,15.74,8.32,26.52-11.38,10.78-19.71,29.44-81.88-1.65-112.97,0,0-12.43-12.44-24.87,6.22Z" fill="#fff" stroke-width="0"/>
      <path d="M1337.14,471.67h-74.61c-1.71,0-3.11-1.4-3.11-3.11h0c0-1.71,1.4-3.11,3.11-3.11h74.61c1.71,0,3.11,1.4,3.11,3.11h0c0,1.71-1.4,3.11-3.11,3.11Z" fill="#fff" stroke-width="0"/>
    </g>
  </g>
</svg>